<svg xmlns="http://www.w3.org/2000/svg" viewBox="0 0 600 600"><defs><style>.cls-1{fill:#0b0c10;}.cls-2,.cls-3,.cls-4,.cls-5{fill:none;stroke:#66fcf1;stroke-miterlimit:10;}.cls-2{stroke-width:7.21px;}.cls-3{stroke-width:5.72px;}.cls-4{stroke-width:22.89px;}.cls-5{stroke-width:17.17px;}</style></defs><g id="Layer_2" data-name="Layer 2"><g id="Layer_2-2" data-name="Layer 2"><rect class="cls-1" width="600" height="600"/><circle class="cls-2" cx="300" cy="113.37" r="13.11"/><ellipse class="cls-3" cx="300" cy="113.37" rx="71.85" ry="23.88"/><ellipse class="cls-3" cx="300" cy="113.37" rx="23.88" ry="71.85" transform="translate(-16.49 165.19) rotate(-30)"/><ellipse class="cls-3" cx="300" cy="113.37" rx="71.85" ry="23.88" transform="matrix(0.5, -0.87, 0.87, 0.5, 51.82, 316.49)"/><circle class="cls-2" cx="461.63" cy="206.68" r="13.11"/><ellipse class="cls-3" cx="461.63" cy="206.68" rx="71.85" ry="23.88"/><ellipse class="cls-3" cx="461.63" cy="206.68" rx="23.88" ry="71.85" transform="translate(-41.5 258.5) rotate(-30)"/><ellipse class="cls-3" cx="461.63" cy="206.68" rx="71.85" ry="23.88" transform="translate(51.82 503.12) rotate(-60)"/><circle class="cls-2" cx="300" cy="486.63" r="13.11"/><ellipse class="cls-3" cx="300" cy="486.63" rx="71.85" ry="23.88"/><ellipse class="cls-3" cx="300" cy="486.63" rx="23.88" ry="71.85" transform="translate(-203.12 215.2) rotate(-30)"/><ellipse class="cls-3" cx="300" cy="486.63" rx="71.85" ry="23.88" transform="translate(-271.44 503.12) rotate(-60)"/><circle class="cls-2" cx="461.63" cy="400.22" r="13.11"/><ellipse class="cls-3" cx="461.63" cy="400.22" rx="71.85" ry="23.88"/><ellipse class="cls-3" cx="461.63" cy="400.22" rx="23.88" ry="71.85" transform="translate(-138.26 284.43) rotate(-30)"/><ellipse class="cls-3" cx="461.63" cy="400.22" rx="71.85" ry="23.88" transform="translate(-115.79 599.89) rotate(-60)"/><circle class="cls-4" cx="300" cy="300" r="67.97"/><line class="cls-5" x1="300" y1="232.03" x2="300" y2="126.48"/><line class="cls-5" x1="358.68" y1="265.69" x2="450.74" y2="213.98"/><line class="cls-5" x1="357.24" y1="336.66" x2="450.76" y2="392.88"/><line class="cls-5" x1="300" y1="367.97" x2="300" y2="473.52"/></g></g></svg>